<svg width="35" height="17" viewBox="0 0 35 17" fill="none" xmlns="http://www.w3.org/2000/svg">
<path d="M9.54639 10.6782H11.4023V12.6777H9.54639V16H7.05469V12.6777H0.60498L0.533203 11.1602L6.97266 1.07031H9.54639V10.6782ZM3.14795 10.6782H7.05469V4.44385L6.87012 4.77197L3.14795 10.6782ZM22.7842 9.71436C22.7842 11.8608 22.3809 13.481 21.5742 14.5747C20.7744 15.6616 19.5542 16.2051 17.9136 16.2051C16.3003 16.2051 15.0835 15.6753 14.2632 14.6157C13.4497 13.5493 13.0327 11.9736 13.0122 9.88867V7.30469C13.0122 5.1582 13.4121 3.54834 14.2119 2.4751C15.0186 1.40186 16.2456 0.865234 17.8931 0.865234C19.5269 0.865234 20.7437 1.38818 21.5435 2.43408C22.3501 3.47998 22.7637 5.04541 22.7842 7.13037V9.71436ZM20.2925 6.92529C20.2925 5.52393 20.1011 4.49854 19.7183 3.84912C19.3354 3.19287 18.7271 2.86475 17.8931 2.86475C17.0796 2.86475 16.4814 3.17578 16.0986 3.79785C15.7158 4.41309 15.5142 5.37695 15.4937 6.68945V10.0732C15.4937 11.4678 15.6885 12.5068 16.0781 13.1904C16.4678 13.874 17.0796 14.2158 17.9136 14.2158C18.7134 14.2158 19.3047 13.9014 19.6875 13.2725C20.0703 12.6367 20.272 11.6455 20.2925 10.2988V6.92529ZM30.9053 7.78662H34.8018V10.063H30.9053V14.5029H28.4854V10.063H24.5684V7.78662H28.4854V3.63379H30.9053V7.78662Z" fill="white"/>
</svg>
