<svg width="71" height="48" viewBox="0 0 71 48" fill="none" xmlns="http://www.w3.org/2000/svg">
<path d="M9.54639 13.6782H11.4023V15.6777H9.54639V19H7.05469V15.6777H0.60498L0.533203 14.1602L6.97266 4.07031H9.54639V13.6782ZM3.14795 13.6782H7.05469V7.44385L6.87012 7.77197L3.14795 13.6782ZM22.7842 12.7144C22.7842 14.8608 22.3809 16.481 21.5742 17.5747C20.7744 18.6616 19.5542 19.2051 17.9136 19.2051C16.3003 19.2051 15.0835 18.6753 14.2632 17.6157C13.4497 16.5493 13.0327 14.9736 13.0122 12.8887V10.3047C13.0122 8.1582 13.4121 6.54834 14.2119 5.4751C15.0186 4.40186 16.2456 3.86523 17.8931 3.86523C19.5269 3.86523 20.7437 4.38818 21.5435 5.43408C22.3501 6.47998 22.7637 8.04541 22.7842 10.1304V12.7144ZM20.2925 9.92529C20.2925 8.52393 20.1011 7.49854 19.7183 6.84912C19.3354 6.19287 18.7271 5.86475 17.8931 5.86475C17.0796 5.86475 16.4814 6.17578 16.0986 6.79785C15.7158 7.41309 15.5142 8.37695 15.4937 9.68945V13.0732C15.4937 14.4678 15.6885 15.5068 16.0781 16.1904C16.4678 16.874 17.0796 17.2158 17.9136 17.2158C18.7134 17.2158 19.3047 16.9014 19.6875 16.2725C20.0703 15.6367 20.272 14.6455 20.2925 13.2988V9.92529ZM30.9053 10.7866H34.8018V13.063H30.9053V17.5029H28.4854V13.063H24.5684V10.7866H28.4854V6.63379H30.9053V10.7866Z" fill="white"/>
<path d="M8.00781 44H6.5625V36.7422H2.67188V44H1.21875V35.5469H8.00781V44ZM17.4688 39.8672C17.4688 41.1536 17.1745 42.1901 16.5859 42.9766C15.9974 43.763 15.2005 44.1562 14.1953 44.1562C13.1693 44.1562 12.362 43.8307 11.7734 43.1797V47.25H10.3281V35.5469H11.6484L11.7188 36.4844C12.3073 35.7552 13.125 35.3906 14.1719 35.3906C15.1875 35.3906 15.9896 35.7734 16.5781 36.5391C17.1719 37.3047 17.4688 38.3698 17.4688 39.7344V39.8672ZM16.0234 39.7031C16.0234 38.75 15.8203 37.9974 15.4141 37.4453C15.0078 36.8932 14.4505 36.6172 13.7422 36.6172C12.8672 36.6172 12.2109 37.0052 11.7734 37.7812V41.8203C12.2057 42.5911 12.8672 42.9766 13.7578 42.9766C14.4505 42.9766 15 42.7031 15.4062 42.1562C15.8177 41.6042 16.0234 40.7865 16.0234 39.7031ZM18.9297 39.6953C18.9297 38.8672 19.0911 38.1224 19.4141 37.4609C19.7422 36.7995 20.1953 36.2891 20.7734 35.9297C21.3568 35.5703 22.0208 35.3906 22.7656 35.3906C23.9167 35.3906 24.8464 35.7891 25.5547 36.5859C26.2682 37.3828 26.625 38.4427 26.625 39.7656V39.8672C26.625 40.6901 26.4661 41.4297 26.1484 42.0859C25.8359 42.737 25.3854 43.2448 24.7969 43.6094C24.2135 43.974 23.5417 44.1562 22.7812 44.1562C21.6354 44.1562 20.7057 43.7578 19.9922 42.9609C19.2839 42.1641 18.9297 41.1094 18.9297 39.7969V39.6953ZM20.3828 39.8672C20.3828 40.8047 20.599 41.5573 21.0312 42.125C21.4688 42.6927 22.0521 42.9766 22.7812 42.9766C23.5156 42.9766 24.099 42.6901 24.5312 42.1172C24.9635 41.5391 25.1797 40.7318 25.1797 39.6953C25.1797 38.7682 24.9583 38.0182 24.5156 37.4453C24.0781 36.8672 23.4948 36.5781 22.7656 36.5781C22.0521 36.5781 21.4766 36.862 21.0391 37.4297C20.6016 37.9974 20.3828 38.8099 20.3828 39.8672ZM31.9453 44.1562C30.7995 44.1562 29.8672 43.7812 29.1484 43.0312C28.4297 42.276 28.0703 41.2682 28.0703 40.0078V39.7422C28.0703 38.9036 28.2292 38.1562 28.5469 37.5C28.8698 36.8385 29.3177 36.3229 29.8906 35.9531C30.4688 35.5781 31.0938 35.3906 31.7656 35.3906C32.8646 35.3906 33.7188 35.7526 34.3281 36.4766C34.9375 37.2005 35.2422 38.237 35.2422 39.5859V40.1875H29.5156C29.5365 41.0208 29.7786 41.6953 30.2422 42.2109C30.7109 42.7214 31.3047 42.9766 32.0234 42.9766C32.5339 42.9766 32.9661 42.8724 33.3203 42.6641C33.6745 42.4557 33.9844 42.1797 34.25 41.8359L35.1328 42.5234C34.4245 43.612 33.362 44.1562 31.9453 44.1562ZM31.7656 36.5781C31.1823 36.5781 30.6927 36.7917 30.2969 37.2188C29.901 37.6406 29.6562 38.2344 29.5625 39H33.7969V38.8906C33.7552 38.1562 33.5573 37.5885 33.2031 37.1875C32.849 36.7812 32.3698 36.5781 31.7656 36.5781ZM39.5547 40.3984H38.5V44H37.0469V35.5469H38.5V39.125H39.4453L42.2891 35.5469H44.0391L40.6953 39.6094L44.3203 44H42.4844L39.5547 40.3984ZM51.8438 36.7188H49.0078V44H47.5625V36.7188H44.7812V35.5469H51.8438V36.7188ZM52.5391 39.6953C52.5391 38.8672 52.7005 38.1224 53.0234 37.4609C53.3516 36.7995 53.8047 36.2891 54.3828 35.9297C54.9661 35.5703 55.6302 35.3906 56.375 35.3906C57.526 35.3906 58.4557 35.7891 59.1641 36.5859C59.8776 37.3828 60.2344 38.4427 60.2344 39.7656V39.8672C60.2344 40.6901 60.0755 41.4297 59.7578 42.0859C59.4453 42.737 58.9948 43.2448 58.4062 43.6094C57.8229 43.974 57.151 44.1562 56.3906 44.1562C55.2448 44.1562 54.3151 43.7578 53.6016 42.9609C52.8932 42.1641 52.5391 41.1094 52.5391 39.7969V39.6953ZM53.9922 39.8672C53.9922 40.8047 54.2083 41.5573 54.6406 42.125C55.0781 42.6927 55.6615 42.9766 56.3906 42.9766C57.125 42.9766 57.7083 42.6901 58.1406 42.1172C58.5729 41.5391 58.7891 40.7318 58.7891 39.6953C58.7891 38.7682 58.5677 38.0182 58.125 37.4453C57.6875 36.8672 57.1042 36.5781 56.375 36.5781C55.6615 36.5781 55.0859 36.862 54.6484 37.4297C54.2109 37.9974 53.9922 38.8099 53.9922 39.8672ZM62.1797 44V35.5469H65.4766C66.6016 35.5469 67.4635 35.7448 68.0625 36.1406C68.6667 36.5312 68.9688 37.1068 68.9688 37.8672C68.9688 38.2578 68.8516 38.612 68.6172 38.9297C68.3828 39.2422 68.0365 39.4818 67.5781 39.6484C68.0885 39.7682 68.4974 40.0026 68.8047 40.3516C69.1172 40.7005 69.2734 41.1172 69.2734 41.6016C69.2734 42.3776 68.987 42.9714 68.4141 43.3828C67.8464 43.7943 67.0417 44 66 44H62.1797ZM63.625 40.2891V42.8359H66.0156C66.6198 42.8359 67.0703 42.724 67.3672 42.5C67.6693 42.276 67.8203 41.9609 67.8203 41.5547C67.8203 40.7109 67.2005 40.2891 65.9609 40.2891H63.625ZM63.625 39.1328H65.4922C66.8464 39.1328 67.5234 38.737 67.5234 37.9453C67.5234 37.1536 66.8828 36.7448 65.6016 36.7188H63.625V39.1328Z" fill="white"/>
</svg>
