<svg width="101" height="45" viewBox="0 0 101 45" fill="none" xmlns="http://www.w3.org/2000/svg">
<path d="M11.0063 0.474998C10.8938 1.31875 10.8188 2.18125 10.7813 3.0625C10.7438 3.925 10.725 4.825 10.725 5.7625C10.725 7.43125 10.8094 9.1375 10.9781 10.8812C11.1469 12.6062 11.4 14.3312 11.7375 16.0562C12.075 17.7812 12.4969 19.4781 13.0031 21.1469C13.5094 22.7969 14.0906 24.3719 14.7469 25.8719C15.4219 27.3719 16.1719 28.7687 16.9969 30.0625C17.8406 31.3562 18.7688 32.5 19.7813 33.4937C20.8875 32.35 21.7781 31.0375 22.4531 29.5562C23.1469 28.0562 23.6813 26.5 24.0563 24.8875C24.45 23.2562 24.7125 21.6156 24.8438 19.9656C24.975 18.3156 25.05 16.75 25.0688 15.2687H31.2563C31.2563 16.75 31.3219 18.3062 31.4531 19.9375C31.5844 21.5687 31.8375 23.1906 32.2125 24.8031C32.5875 26.3969 33.1125 27.9437 33.7875 29.4437C34.4625 30.925 35.3438 32.2562 36.4313 33.4375C38.0063 31.7312 39.3656 29.8 40.5094 27.6437C41.6531 25.4687 42.6 23.1906 43.35 20.8094C44.1 18.4281 44.6531 15.9906 45.0094 13.4969C45.3656 11.0031 45.5438 8.55625 45.5438 6.15625C45.5438 4.15 45.4313 2.21875 45.2063 0.362498C46.8563 0.437498 48.3281 0.549998 49.6219 0.699998C50.9344 0.849998 52.0688 0.999998 53.025 1.15C54.1125 1.3375 55.0875 1.525 55.95 1.7125V8.8C55.3313 8.59375 54.7219 8.43437 54.1219 8.32187C53.5406 8.19062 52.9688 8.05 52.4063 7.9C52.4063 11.9312 52.0125 15.6719 51.225 19.1219C50.4563 22.5531 49.3781 25.7594 47.9906 28.7406C46.6031 31.7219 44.9438 34.4875 43.0125 37.0375C41.0813 39.5875 38.9625 41.9687 36.6563 44.1813C35.0063 42.5875 33.4688 40.8062 32.0438 38.8375C30.6375 36.8687 29.3438 34.6375 28.1625 32.1437C26.9438 34.6375 25.6125 36.8781 24.1688 38.8656C22.7438 40.8531 21.2063 42.6437 19.5563 44.2375C17.2688 42.025 15.1781 39.6437 13.2844 37.0937C11.3906 34.5437 9.76877 31.7781 8.41877 28.7969C7.06877 25.8156 6.01877 22.6094 5.26877 19.1781C4.51877 15.7281 4.14377 11.9875 4.14377 7.95625C3.46877 8.10625 2.81252 8.24687 2.17502 8.37812C1.55627 8.49062 0.937518 8.65 0.318768 8.85625V1.7125C0.318768 1.73125 0.562518 1.69375 1.05002 1.6C1.55627 1.50625 2.26877 1.39375 3.18752 1.2625C4.12502 1.1125 5.25002 0.971873 6.56252 0.840623C7.87502 0.690623 9.35627 0.568748 11.0063 0.474998ZM79.6313 0.137498C82.5188 0.137498 85.2375 0.390623 87.7875 0.896873C90.3375 1.40312 92.5688 2.10625 94.4813 3.00625C96.3938 3.90625 97.9032 4.99375 99.0094 6.26875C100.116 7.525 100.669 8.9125 100.669 10.4312V32.8187C100.669 34.3375 100.116 35.7344 99.0094 37.0094C97.9032 38.2656 96.3938 39.3437 94.4813 40.2437C92.5688 41.1437 90.3375 41.8469 87.7875 42.3531C85.2375 42.8594 82.5188 43.1125 79.6313 43.1125C78.0188 43.1125 76.3688 43.0563 74.6813 42.9437C72.9938 42.8125 71.3531 42.6531 69.7594 42.4656C68.1844 42.2594 66.7031 42.025 65.3156 41.7625C63.9281 41.5 62.7375 41.2187 61.7438 40.9187V2.33125C62.7375 2.03125 63.9281 1.75 65.3156 1.4875C66.7031 1.225 68.1844 0.999998 69.7594 0.812498C71.3531 0.606248 72.9938 0.446873 74.6813 0.334373C76.3688 0.203123 78.0188 0.137498 79.6313 0.137498ZM79.7438 6.49375C78.0375 6.49375 76.5563 6.55 75.3 6.6625C74.0438 6.75625 72.9657 6.8875 72.0656 7.05625C71.1656 7.20625 70.4156 7.375 69.8156 7.5625C69.2344 7.73125 68.7563 7.88125 68.3813 8.0125V35.2375C68.7563 35.3875 69.2344 35.5469 69.8156 35.7156C70.4156 35.8844 71.1656 36.0531 72.0656 36.2219C72.9657 36.3719 74.0438 36.5031 75.3 36.6156C76.5563 36.7094 78.0375 36.7562 79.7438 36.7562C81.8438 36.7562 83.7282 36.5875 85.3969 36.25C87.0844 35.9125 88.5 35.4625 89.6438 34.9C90.8063 34.3375 91.6969 33.6906 92.3157 32.9594C92.9344 32.2094 93.2438 31.4312 93.2438 30.625V12.625C93.2438 11.8187 92.9344 11.05 92.3157 10.3187C91.6969 9.56875 90.8063 8.9125 89.6438 8.35C88.5 7.7875 87.0844 7.3375 85.3969 7C83.7282 6.6625 81.8438 6.49375 79.7438 6.49375Z" fill="#34547A"/>
</svg>
