<svg width="69" height="13" viewBox="0 0 69 13" fill="none" xmlns="http://www.w3.org/2000/svg">
<path d="M7.00781 9H5.5625V1.74219H1.67188V9H0.21875V0.546875H7.00781V9ZM16.4688 4.86719C16.4688 6.15365 16.1745 7.1901 15.5859 7.97656C14.9974 8.76302 14.2005 9.15625 13.1953 9.15625C12.1693 9.15625 11.362 8.83073 10.7734 8.17969V12.25H9.32812V0.546875H10.6484L10.7188 1.48438C11.3073 0.755208 12.125 0.390625 13.1719 0.390625C14.1875 0.390625 14.9896 0.773438 15.5781 1.53906C16.1719 2.30469 16.4688 3.36979 16.4688 4.73438V4.86719ZM15.0234 4.70312C15.0234 3.75 14.8203 2.9974 14.4141 2.44531C14.0078 1.89323 13.4505 1.61719 12.7422 1.61719C11.8672 1.61719 11.2109 2.00521 10.7734 2.78125V6.82031C11.2057 7.59115 11.8672 7.97656 12.7578 7.97656C13.4505 7.97656 14 7.70312 14.4062 7.15625C14.8177 6.60417 15.0234 5.78646 15.0234 4.70312ZM17.9297 4.69531C17.9297 3.86719 18.0911 3.1224 18.4141 2.46094C18.7422 1.79948 19.1953 1.28906 19.7734 0.929688C20.3568 0.570312 21.0208 0.390625 21.7656 0.390625C22.9167 0.390625 23.8464 0.789062 24.5547 1.58594C25.2682 2.38281 25.625 3.44271 25.625 4.76562V4.86719C25.625 5.6901 25.4661 6.42969 25.1484 7.08594C24.8359 7.73698 24.3854 8.24479 23.7969 8.60938C23.2135 8.97396 22.5417 9.15625 21.7812 9.15625C20.6354 9.15625 19.7057 8.75781 18.9922 7.96094C18.2839 7.16406 17.9297 6.10938 17.9297 4.79688V4.69531ZM19.3828 4.86719C19.3828 5.80469 19.599 6.55729 20.0312 7.125C20.4688 7.69271 21.0521 7.97656 21.7812 7.97656C22.5156 7.97656 23.099 7.6901 23.5312 7.11719C23.9635 6.53906 24.1797 5.73177 24.1797 4.69531C24.1797 3.76823 23.9583 3.01823 23.5156 2.44531C23.0781 1.86719 22.4948 1.57812 21.7656 1.57812C21.0521 1.57812 20.4766 1.86198 20.0391 2.42969C19.6016 2.9974 19.3828 3.8099 19.3828 4.86719ZM30.9453 9.15625C29.7995 9.15625 28.8672 8.78125 28.1484 8.03125C27.4297 7.27604 27.0703 6.26823 27.0703 5.00781V4.74219C27.0703 3.90365 27.2292 3.15625 27.5469 2.5C27.8698 1.83854 28.3177 1.32292 28.8906 0.953125C29.4688 0.578125 30.0938 0.390625 30.7656 0.390625C31.8646 0.390625 32.7188 0.752604 33.3281 1.47656C33.9375 2.20052 34.2422 3.23698 34.2422 4.58594V5.1875H28.5156C28.5365 6.02083 28.7786 6.69531 29.2422 7.21094C29.7109 7.72135 30.3047 7.97656 31.0234 7.97656C31.5339 7.97656 31.9661 7.8724 32.3203 7.66406C32.6745 7.45573 32.9844 7.17969 33.25 6.83594L34.1328 7.52344C33.4245 8.61198 32.362 9.15625 30.9453 9.15625ZM30.7656 1.57812C30.1823 1.57812 29.6927 1.79167 29.2969 2.21875C28.901 2.64062 28.6562 3.23438 28.5625 4H32.7969V3.89062C32.7552 3.15625 32.5573 2.58854 32.2031 2.1875C31.849 1.78125 31.3698 1.57812 30.7656 1.57812ZM38.5547 5.39844H37.5V9H36.0469V0.546875H37.5V4.125H38.4453L41.2891 0.546875H43.0391L39.6953 4.60938L43.3203 9H41.4844L38.5547 5.39844ZM50.8438 1.71875H48.0078V9H46.5625V1.71875H43.7812V0.546875H50.8438V1.71875ZM51.5391 4.69531C51.5391 3.86719 51.7005 3.1224 52.0234 2.46094C52.3516 1.79948 52.8047 1.28906 53.3828 0.929688C53.9661 0.570312 54.6302 0.390625 55.375 0.390625C56.526 0.390625 57.4557 0.789062 58.1641 1.58594C58.8776 2.38281 59.2344 3.44271 59.2344 4.76562V4.86719C59.2344 5.6901 59.0755 6.42969 58.7578 7.08594C58.4453 7.73698 57.9948 8.24479 57.4062 8.60938C56.8229 8.97396 56.151 9.15625 55.3906 9.15625C54.2448 9.15625 53.3151 8.75781 52.6016 7.96094C51.8932 7.16406 51.5391 6.10938 51.5391 4.79688V4.69531ZM52.9922 4.86719C52.9922 5.80469 53.2083 6.55729 53.6406 7.125C54.0781 7.69271 54.6615 7.97656 55.3906 7.97656C56.125 7.97656 56.7083 7.6901 57.1406 7.11719C57.5729 6.53906 57.7891 5.73177 57.7891 4.69531C57.7891 3.76823 57.5677 3.01823 57.125 2.44531C56.6875 1.86719 56.1042 1.57812 55.375 1.57812C54.6615 1.57812 54.0859 1.86198 53.6484 2.42969C53.2109 2.9974 52.9922 3.8099 52.9922 4.86719ZM61.1797 9V0.546875H64.4766C65.6016 0.546875 66.4635 0.744792 67.0625 1.14062C67.6667 1.53125 67.9688 2.10677 67.9688 2.86719C67.9688 3.25781 67.8516 3.61198 67.6172 3.92969C67.3828 4.24219 67.0365 4.48177 66.5781 4.64844C67.0885 4.76823 67.4974 5.0026 67.8047 5.35156C68.1172 5.70052 68.2734 6.11719 68.2734 6.60156C68.2734 7.3776 67.987 7.97135 67.4141 8.38281C66.8464 8.79427 66.0417 9 65 9H61.1797ZM62.625 5.28906V7.83594H65.0156C65.6198 7.83594 66.0703 7.72396 66.3672 7.5C66.6693 7.27604 66.8203 6.96094 66.8203 6.55469C66.8203 5.71094 66.2005 5.28906 64.9609 5.28906H62.625ZM62.625 4.13281H64.4922C65.8464 4.13281 66.5234 3.73698 66.5234 2.94531C66.5234 2.15365 65.8828 1.74479 64.6016 1.71875H62.625V4.13281Z" fill="white"/>
</svg>
